<svg id="Calque_1" data-name="Calque 1" xmlns="http://www.w3.org/2000/svg" viewBox="0 0 708.6611 150.1118"><defs><style>.cls-1{fill:#e42313;}.cls-2{fill:#1d1d1b;}</style></defs><title>logo_new</title><path class="cls-1" d="M516.58,21.4287c-2.0576-1.1812-2.0576-3.6641-4.1113-4.5337a6.582,6.582,0,0,0-2.12-2.1782c-.7324-1.1363-1.1885-2.3892-2.54-2.941-1.3008-2.1582-2.8194-2.2793-4.1006-3.7905-5.19-1.1792-5.625-1.8335-6.8116-1.8335-1.6367,0-1.6367,1.293-2.5976,1.293-4.7266,0-4.8633,2.75-8.9082,4.6772a2.0448,2.0448,0,0,0-.794-.1909c-.8691,1.3994-3.6523,1.8325-4.2109,4.7461a.6473.6473,0,0,1-.13.0649c-.3408,0-.3408-.4311-.3408-1.2944,0-2.3789,2.0664-2.3789,2.0664-6.8144a2.1943,2.1943,0,0,0-2.0664-1.8272c-.8564,1.3887-3.6768,1.8272-4.2041,4.75-3.1211,2.9121-3.7793,8.9653-5.4033,11.3472-.1.9721-1.6035,3.771-1.6035,5.9448-1.9639,1.8291-2.3926,6.8047-7.1495,13.937-1.18,1.4019-1.6093,4.9736-1.6093,7.2456,0,1.0747.749,1.29,1.7158,1.29,1.3027,0,1.41-2.9234,2.0547-2.9234.43,0,.6513.2232.6513,4.0025-1.0742,1.5156-1.0742,4.1118-1.0742,8.8647,0,.4312-.4375,1.7231-.4375,2.7007,1.0811,5.7324.4375,8.7568,3.8848,13.6123a8.86,8.86,0,0,0,3.458,3.2109,17.8578,17.8578,0,0,0,1.2129,1.9121c2.7959,4.3262,6.6846,4.1114,9.6113,4.876,6.0449,0,6.9346-2.1719,12.6319-3.6816a94.5889,94.5889,0,0,1,9.3046-7.1367c1.9375-3.1192,6.0645-5.0713,6.7081-7.8907,4.5332-3.9863,4.957-7.0171,6.4775-8.207,4.9717-9.8291,4.6416-14.0488,5.7217-20.41,0-12.55-4.3262-15.789-5.2862-18.8217M481.1074,73.145a4.3274,4.3274,0,0,1-1.3994-.24,19.8457,19.8457,0,0,0-1.3877-2.7382c-.4356-2.5909-1.083-6.6954-1.083-7.4522,0-1.8335.3154-2.9141.3154-4.3144,0-13.73,2.0781-16.2124,3.47-24.4322,1.9483-2.5932,5.625-6.2671,6.9346-7.019,1.3828-.8584,6.5762-3.2373,9.3975-3.2373a15.6055,15.6055,0,0,1,6.5664,1.7744c2.0957,3.1865,1.7177,4.9082,3.2334,6.49a11.9261,11.9261,0,0,0-.1133,1.8389c0,1.7246.6406,4.3276.6406,5.62,0,3.57-1.7236,7.2452-1.7236,9.8345-.9688.4307-1.4981,2.5942-2.586,5.8257-.7529,2.2773-3.5537,5.2007-5.5927,8.334-3.9219,2.6894-4.3516,5.291-10.1817,7.9853-1.1992,1.085-3.7627,1.41-6.49,1.7315M502.42,68.5444c-3.8955,2.7109-4.3252,5.3057-10.1553,8.0039a4.39,4.39,0,0,1-1.6162.8486,77.7757,77.7757,0,0,1,7.6523-5.7539c1.9493-3.1416,6.0606-5.0752,6.6885-7.8916a22.5528,22.5528,0,0,0,2.7695-2.8706c-1.0058,2.1616-3.4687,4.8267-5.3388,7.6636"/><path class="cls-2" d="M65.4614,14.8452a12.8186,12.8186,0,0,0-2.5137,1.5556c.0308-.4467.0591-.8847.0591-1.2763,0-.9771.1016-5.399-2.1167-5.399-.5249,0-2.8613,2.05-4.7734,2.81-2.8482,1.1826-4.5528,7.2432-7.294,10.0464-.7485,2.0542-5.0918,6.05-5.31,7.3486a12.82,12.82,0,0,0-3.91,4.5352c-1.6934.874-6.0264,7.1284-9.9629,7.1284a6.6614,6.6614,0,0,1-1.6377-.2188c-1.185-2.9252-2.0937-6.8359-3.5288-11.1743-.2056-.7705-.6274-6.8125-1.0547-7.7934a4.2742,4.2742,0,0,0,.2124-1.396,25.2584,25.2584,0,0,0-.4218-4.44,40.407,40.407,0,0,0,.2094-5.8242c0-3.1372-.64-4.33-1.7983-4.33-.4883,0-1.231.7578-2.7876,1.32V5.6215c0-3.143-.6235-4.3335-1.7817-4.3335-.6485,0-1.6978,1.3023-4.45,1.7369C10.4834,6.1518,7.9375,5.0825,6.8808,8.5214a35.861,35.861,0,0,0-.9541,7.5767c0,.7632-2.3281,25.2847-2.3281,26.0347,0,5.7378-3.0742,32.4331-3.5986,35.02.5244,1.41.3081,4.3223,1.0605,4.3223A24.4767,24.4767,0,0,0,4.8193,80.35c-.0811.8056-.1621,1.4834-.251,1.93.5269,1.4063.313,4.3262,1.06,4.3262.31,0,5.0742-1.3008,5.292-2.0557.4214-1.7373,1.4736.5333,1.4736-5.832,0-.7568,1.707-7.89,1.707-11.3428a56.2285,56.2285,0,0,0,1.3672-7.6831c1.27-7.0092,1.4893-11.3779,1.9868-13.3545.6475.7789,1.4356,1.7837,2.1368,2.7193a17.3311,17.3311,0,0,0,1.518,1.2246c.022.0737.0581.1582.08.2231.6367.6636,1.9024,2.2735,2.97,3.6827,2.7535,2.4809,4.66,2.9174,6.3555,2.9174,2.1143,0,6.8818-2.4863,7.0884-4.2158,3.7021-.7558,4.7622-3.998,7.4189-6.0483a22.35,22.35,0,0,0,3.6016-3.8267c-.334,2.2236-.6177,4.2022-1.0732,6.1528-1.9083,7.8873-2.4361,17.8287-3.1846,19.3345-.103,4.6514-1.6948,7.8975-1.6948,11.0322a.6922.6922,0,0,0,.6377.6387c2.375,0,3.331-3.6855,5.5214-4.8428-.38,3.7764-1.59,6.587-1.59,9.3233a.6926.6926,0,0,0,.6411.6523c2.75,0,3.5942-4.9775,6.6743-5.1767.5313-.9785,9.95-37.6079,10.583-43.878.1153-.9824,2.4356-13.3,2.4356-15.9956,0-.9687.1015-5.41-2.1128-5.41m-21.29,24.7519c-1.4555.7412-4.8564,5.4331-8.2465,6.7676,1.6518-1.3345,2.7285-3.2676,4.5258-4.6509C44.2627,38.7915,47.8564,31.55,49.665,31.55c.3931,0,.62.0586.7012.3272a11.5416,11.5416,0,0,0-2.2715,3.1782,12.8253,12.8253,0,0,0-3.9234,4.5415"/><path class="cls-2" d="M114.1567,49.4345c0-4.7529-.9541-23.5639-.9541-25.3965a24.5473,24.5473,0,0,1-1.0566-3.4658c-.5914-2.13-2.8228-2.5781-3.9927-2.99-.1455-.5562-.3081-1.2456-.5733-2.1323a4.0142,4.0142,0,0,0-2.7929-2.5938c.6738-1.9126,1.8549-4.4531,1.8549-5.6792,0-1.6211-2.3422-2.0522-3.3911-2.0522-.9052,0-1.4321.5893-2.664,1.5952a18.9268,18.9268,0,0,0,1.4809-4.666C102.0678.4292,99.7363,0,98.6777,0c-1.5816,0-2.0122,1.8335-7.2017,4.5351C90.7412,7.02,89.791,8.4248,87.99,8.644c-2.23.21-3.8247.9707-3.8247,4.2124,0,.9727,1.2754.8628,1.2754,1.94,0,.979-13.2378,35.56-14.0864,35.7725-4.5586.7568-5.1851,1.8428-6.5572,6.915l.3037,1.6265c0,.543-.5195,1.0723-.5195,2.0552,0,2.04.6387,2.04,3.0689,2.04,0,1.8487-5.2925,19.3516-5.2925,21.8428,0,2.5908.4189,2.9121,2.0088,2.9121.5288,0,1.4809-.6475,2.7641-.8691a3.5091,3.5091,0,0,0,.2613-.3379,12.9035,12.9035,0,0,0-.4707,3.4121c0,2.6025.4248,2.9228,2.0107,2.9228.5288,0,1.4893-.6435,2.7593-.8613,1.16-1.2012,8.6865-27.02,9.3237-27.02,4.55,0,18.6309-5.5445,19.4736-5.7632.02,4.8813-.2148,20.95-.2148,22.2417,0,1.4131.41,2.3838,1.0561,2.3838.7271,0,2.8853-1.3936,3.8555-2.6758-.1255,2.2881-.3408,4.4922-.3408,5.4326,0,1.4033.418,2.3662,1.0566,2.3662.9449,0,4.335-2.3662,4.335-3.7793v-1.51c1.2607-2.0518,3.5-25.1739,3.5-27.9956,1.6841-1.1812,2.2275-1.6231,2.2275-3.6695,0-2.2666-1.8066-.645-1.8066-2.8042M87.4306,48.61a9.9117,9.9117,0,0,0,.88-2.85c1.3721-2.7075,6.0356-11.3569,6.5669-15.4595,1.4829-1.72,1.9121-3.24,3.1743-3.24a9.0342,9.0342,0,0,1,1.3418.4648,2.9781,2.9781,0,0,0,.9888,1.3213,14.2651,14.2651,0,0,0-.2251,3.14c0,3.2324.7412,10.2544.7412,10.9057,0,.7622-.312,2.0625-.312,4.1148-2.02.5288-11.6753,1.4282-13.1563,1.6025"/><path class="cls-2" d="M141.5747,9.6591a6.2847,6.2847,0,0,0-3.4224,1.313A17.29,17.29,0,0,0,138.7,7.5673c0-.5463-.6348-3.0346-1.6934-3.0346-1.2656,0-2.2207.55-3.916,1.6211-1.8037.1118-4.4444,1.3-5.2945,2.6982-2.9731,4.9741-5.2934,18.5938-5.2934,18.5938-.6367.7592-.85,2.4814-.85,3.9907,0,.55.1016,1.1924.1016,2.497,1.2744.646,1.7036,1.4053,1.7036,5.62,0,1.1772-1.5918,14.0464-1.5918,14.685,0,1.4117-.3159,22.8042-.3159,24.4322,0,3.34,1.58,4.7578,2.7534,4.7578a6.239,6.239,0,0,0,1.7978-.34c0,.2286.0181.4483.0181.7051,0,3.3516,1.5884,4.752,2.7446,4.752a6.0826,6.0826,0,0,0,2.3369-.5313c1.9112-2.2812,3.7066-1.7275,3.7066-4.332,0-1.0772-1.3721-3.3506-1.3721-9.1826.5269-1.8418,9.7358-59.4395,9.7358-61.8072,0-.5288-.6367-3.0332-1.6967-3.0332"/><path class="cls-2" d="M181.9062,7.0708a6.9091,6.9091,0,0,0-1.3887.21v-.146c0-3.7817-.6421-4.2251-3.1762-5.1948-2.5454,0-9.2227,3.4639-10.8042,3.7812-2.0015.4307-13.7725,8.8575-17.48,13.4-1.2608,3.36-4.8618,6.0542-4.8618,11.2456,0,5.5015,17.6533,27.9532,19.3882,29.5411a8.99,8.99,0,0,1,2.3208,5.6889c0,2.1533-2.961,2.3692-2.961,3.8848v1.3965c-.53.86-3.9219,4.7656-5.2973,4.7656-.5362,0-.7413-.1113-.7413-.5391,0-.6513,4.0186-1.7314,4.0186-3.5752a1.8144,1.8144,0,0,0-1.37-1.5019c-1.2681,0-8.37,4.206-12.291,5.7158-3.4908,2.5986-6.2442,3.4619-6.2442,6.0566,0,2.377,1.4932,3.2481,4.6543,4.3868a3.4714,3.4714,0,0,0-.0849.74c0,2.6943,1.913,3.458,6.0283,4.8623,5.0928,0,6.2573-2.2754,9.647-3.4531,3.9145-3.1445,19.6479-10.4395,20.3325-16.4238.417-3.6836-2.854-11.68-8.1485-17.4034a67.42,67.42,0,0,0-5.7265-6.7c-1.9136-3.562-5.938-6.7026-6.357-8.7514-.4194-2.2715-1.5913-3.6807-1.5913-5.2964,0-7.24,9.4356-14.0445,10.5884-14.0445.2178,0,.3291.2076.3291.4214,0,1.7266-4.562,3.14-4.562,5.96,0,1.1831,1.07,1.5058,2.4473,1.5058,2.7514-1.7348,6.0376-2.9174,10.688-6.7065,2.7617-2.2622,3.6005-3.3447,4.3466-3.5737,1.16-.3208,1.4776-4.2046,1.4776-5.063,0-3.79-.6275-4.22-3.1807-5.19M162.2153,80.77c-.5327,0-.7485-.1084-.7485-.5381a.1809.1809,0,0,1,.0454-.1016c.5962-.3672,1.2168-.748,1.8423-1.1718a6.5893,6.5893,0,0,0,1.5439-1.0928,29.758,29.758,0,0,0,2.6123-2.2334V76.02c-.5278.86-3.92,4.75-5.2954,4.75"/><path class="cls-2" d="M223.789,9.229c-5.0732-1.1983-5.4975-1.837-6.6767-1.837-1.5821,0-1.5821,1.2911-2.5284,1.2911-4.624,0-4.7753,2.7451-8.7421,4.6772a1.9333,1.9333,0,0,0-.774-.2012c-.851,1.4082-3.5869,1.8389-4.1347,4.751a.2181.2181,0,0,1-.1158.065c-.3261,0-.3261-.4312-.3261-1.3,0-2.3746,2.02-2.3746,2.02-6.8072a2.1644,2.1644,0,0,0-2.02-1.8369c-.8345,1.4082-3.5972,1.8369-4.1241,4.7622-3.0688,2.91-3.7036,8.9668-5.2993,11.3345-.103.9849-1.5923,3.7944-1.5923,5.958-1.9,1.8247-2.3173,6.7979-6.979,13.9336-1.1645,1.4-1.5859,4.9727-1.5859,7.2378,0,1.0889.7373,1.2983,1.686,1.2983,1.273,0,1.3755-2.9121,2.01-2.9121.4219,0,.6406.2022.6406,4.003-1.06,1.5039-1.06,4.1025-1.06,8.8554,0,.4307-.4224,1.7227-.4224,2.6934,1.0586,5.7246.4224,8.7656,3.811,13.623a8.8668,8.8668,0,0,0,3.3892,3.2071,18.4013,18.4013,0,0,0,1.1826,1.916c2.7554,4.3291,6.4917,5.2451,9.42,4.872,9.6851-1.2382,27.4273-15.89,28.064-18.6962,4.4585-4.0108,4.8794-7.0274,6.3535-8.21,4.874-9.8364,4.5625-14.05,5.6084-20.4214,0-12.5405-4.2241-15.7812-5.1836-18.8125Zm-22.1235,65.16a4.2382,4.2382,0,0,1-1.3794-.248,20.5227,20.5227,0,0,0-1.3618-2.7422c-.4239-2.58-1.0567-6.6914-1.0567-7.4551,0-1.8262.3194-2.9053.3194-4.3076,0-13.7315,2.01-16.2105,3.3808-24.419a38.4881,38.4881,0,0,1,6.7783-7.03c1.3721-.86,6.461-3.2427,9.22-3.2427a15.28,15.28,0,0,1,6.437,1.7764,25.0831,25.0831,0,0,1,3.08,8.3359c0,1.7187.6313,4.3228.6313,5.61,0,3.5644-3.1763,12.4311-4.2353,15.6738-.7456,2.2681-3.4878,5.1929-5.5122,8.3115-3.813,2.71-4.2247,5.3018-9.9512,8.0059-1.1568,1.081-3.7075,1.41-6.35,1.7314m20.8686-4.5976c-3.8071,2.7-4.228,5.2929-9.9414,7.9931a4.72,4.72,0,0,1-1.5874.8526,77.0152,77.0152,0,0,1,7.4908-5.77c1.9121-3.1406,5.94-5.0742,6.57-7.8906a22.2478,22.2478,0,0,0,2.7129-2.8594c-.9908,2.1621-3.416,4.8282-5.2447,7.6739"/><path class="cls-2" d="M300.2739,12.2612c0-4.22-.0977-4.5425-.8486-4.5425-.3746,0-1.5835.8335-3.8277,2.8135.0645-.9507.1143-2.0615.1143-3.3975,0-4.2231-.1143-4.5434-.8506-4.5434-.4209,0-1.792.98-4.4512,3.351-1.687,3.6753-2.2148,9.5069-3.3828,11.3384,0,2.06-.53,2.7075-.53,4.6509,0,11.78-3.5967,40.0923-4.2353,42.5806a42.1861,42.1861,0,0,0-.8877,4.2441,6.1033,6.1033,0,0,1-.16-.7422c-1.5908-1.834-14.6128-37.6108-14.6128-40.1948,0-2.05,1.6983-7.6816,3.6065-12.5415a2.2832,2.2832,0,0,0-2.2315-2.3677c-1.8027,0-3.772,3.9751-4.9292,4.8008.67-2.3179,1.6021-5.0371,2.5821-7.5562a2.2847,2.2847,0,0,0-2.209-2.38c-2.0249,0-4.2393,4.97-5.3076,4.97-.8433,0-.9527-1.5093-2.8589-1.5093-4.98.2134-5.6065.2134-6.6656,7.1318,0,2.1656-9.7461,63.75-9.7461,66.4595,0,2.3789.2178,3.1377,1.2754,3.1377a5.6742,5.6742,0,0,1,2.4322-1.1924l.6333-.3232a29.0253,29.0253,0,0,1,1.8471-5.53c-.6811,3.45-1.62,7.2412-1.62,9.0274,0,2.3828.2158,3.1445,1.28,3.1445a5.6667,5.6667,0,0,1,2.4253-1.1846l.6347-.3174c.648-3.5742,3.0669-7.5742,3.0669-9.4248,0-3.9883,3.608-13.1709,3.5069-14.26,0-.9707,3.2715-13.397,4.44-14.5874.2212-2.1509.3247-3.5645,1.0576-4.5454.0591-.2906.107-.5362.1529-.7862a29.7648,29.7648,0,0,0,1.8549,3.3428c1.2491,4.8555,18.8716,36.5732,20.66,36.5732,1.4893,0,4.4512-2.0449,7.2031-2.705,1.9117-3.1377,2.7476-4.2149,2.7476-7.0206,1.6963-4.8564,7.834-59.7592,7.834-65.914"/><path class="cls-2" d="M341.5717,7.0708a6.7753,6.7753,0,0,0-1.39.21v-.146c0-3.7817-.648-4.2251-3.18-5.1948-2.5376,0-9.2144,3.4639-10.8,3.7812-2.0225.4307-4.6558,3.2413-6.57,4.0044-4.8643,4.4219-7.2046,4.8531-10.9068,9.396-1.2729,3.36-4.8715,6.0542-4.8715,11.2456,0,5.5015.2177,8.7539,4.2353,12.314.1475,1.6533,13.418,15.6392,15.1382,17.2271a8.9392,8.9392,0,0,1,2.34,5.6889c0,2.1533-2.9785,2.3692-2.9785,3.8848v1.3965c-.5166.86-3.9014,4.7656-5.291,4.7656-.5278,0-.7363-.1113-.7363-.5391,0-.6513,4.0288-1.7314,4.0288-3.5752a1.823,1.823,0,0,0-1.3843-1.5019c-1.2695,0-8.3618,4.206-12.28,5.7158-3.5,2.5986-6.2485,3.4619-6.2485,6.0566,0,2.377,1.48,3.2481,4.6577,4.3868a2.9376,2.9376,0,0,0-.0864.74c0,2.6943,1.8989,3.458,6.0381,4.8623,5.0771,0,6.2431-2.2754,9.6391-3.4531,3.916-3.1445,8.6753-4.0039,14.7158-11.999,1.5811-2.1592,3.9161-5.8575,3.7071-7.6729-.9615-8.4316-.9615-8.4316-6.2466-14.1553-1.2549-2.0444-5.3648-6.2475-5.6675-6.6137-.0127-.0288-5.9868-6.7886-6.4111-8.8374-.4243-2.2715-1.5889-3.6807-1.5889-5.2964,0-7.24,9.4209-14.0445,10.604-14.0445.2046,0,.31.2076.31.4214,0,1.7266-4.5508,3.14-4.5508,5.96,0,1.1831,1.0425,1.5058,2.4321,1.5058,2.7534-1.7348,6.0293-2.9174,10.6983-6.7065,2.7441-2.2622,3.5966-3.3447,4.333-3.5737,1.1591-.3208,1.478-4.2046,1.478-5.063,0-3.79-.6274-4.22-3.1685-5.19M321.8769,80.77c-.5425,0-.7436-.1084-.7436-.5381a.1284.1284,0,0,1,.0424-.1016c.5962-.3672,1.2-.748,1.84-1.1718a6.3734,6.3734,0,0,0,1.541-1.0928,28.3248,28.3248,0,0,0,2.6113-2.2334V76.02c-.539.86-3.92,4.75-5.291,4.75"/><path class="cls-2" d="M422.3584,17.6611c-1.5479-3.74-7.6641-10.6577-9.8731-10.8579-1.57-.8618-2.3379-.97-6.8867-.97-2.7432,0-9.1094,2.05-9.9531,3.02-1.2735,1.4116-3.3916.9707-7.7227,5.8442-2.1279.97-4.1289,2.6909-4.2324,4.001-3.1963,1.9443-11.2422,15.3423-11.9824,19.0146-1.3711,2.37-3.5889,15.9839-3.8106,17.61,0,1.2871.4356,6.3779.4356,7.018a14.7924,14.7924,0,0,0,1.1533,5.4063c.95,5.2822,3.0967,9.4219,7.2363,12.6357a19.7831,19.7831,0,0,0,7.7158,7.1924c3.5987.2266,4.8731,2.9121,11.9746,2.9121,7.087,0,9.8457-2.8056,15.4649-5.1855,2.2129-2.5947,6.1289-4.001,6.1289-7.8936a1.221,1.221,0,0,0-1.0518-1.29c-.4277.5469-.8486.4267-1.166,1.7383a10.7038,10.7038,0,0,1-2.5508.75c-1.581,1.7236-4.3437,2.0556-6.3427,3.5537-2.3809.2881-3.8252.9121-5.9512,1.1152,1.9541-.9189,3.8809-2.0557,6.3428-3.1025,2.2236-2.586,6.167-3.9922,6.167-7.8838a1.249,1.249,0,0,0-1.0664-1.2979c-.4336.5323-.8545.4356-1.1778,1.7315-.62.3281-6.88,2.8086-8.8857,4.3183-2.8565.3321-4.3438,1.1963-7.3174,1.1963-3.6074,0-5.6953-2.1855-8.0273-3.3037-6.9424-3.3105-4.02-30.2178,1.3837-39.1162,3.5323-5.8345,9.6524-15.9238,20.0108-15.6821.873.0229,2.9287-.3609,2.9228.6509-.0332,11.4082-7.2763,28.6992-7.2763,29.5688,0,.646.3095,1.2983,1.6923,1.2983a13.0546,13.0546,0,0,0,2.95-.3139c-.0839,2.0273-.0839,3.7622-.0839,4.14,0,.6582.3154,1.2984,1.7119,1.2984,2.1113,0,5.917-.33,6.8711-3.7813.2285-.6543,4.0381-19.3755,4.1963-20.1709"/><path class="cls-2" d="M459.8339,73.7465c0-.4277-.0937-1.1923-.7246-1.1923-.8564.4785-2.4365.7109-3.7431,1.86-.0606-1.5684-.0938-4.7129-.0938-5.8057,0-.4287-.1123-1.1806-.73-1.1806-.9708.5381-2.876.7519-4.252,2.3818-4.3408.53-5.9258,2.2608-11.0029,3.1358a16.6161,16.6161,0,0,0-2.6094.2216c.2617-8.3232,11.0889-58.1054,11.0889-61.0039,0-1.8545-1.3877-3.8047-2.6641-3.8047a3.6257,3.6257,0,0,0-2.0713.6148,14.6611,14.6611,0,0,0,.168-1.9526c0-1.8409-1.376-3.7754-2.6485-3.7754-1.7929,0-1.7929.8559-3.18.8559-1.9083,0-2.7549,3.2446-3.3858,3.6714-1.15,3.251-8.1494,29.187-8.1494,31.4478,0,.8618,1.8027.7612,1.8027,2.2739,0,1.7309-4.78,33.0674-4.78,36.1973.1035,2.9238.6386,3.999,2.87,4.7578.6474.17.9707.6572,1.7363,1.06.1787,2.39.8008,3.37,2.835,4.0674,1.1591.3242,1.2617,1.6162,4.8574,1.6162,3.1885,0,4.24-.8584,7.1084-.8584,1.9082,0,11.2236-2.8066,12.3887-3.8808,2.9541-2.7129,5.289-3.03,5.289-4.545a11.5826,11.5826,0,0,0-.5283-3.0283"/><path class="cls-2" d="M560.4306,15.1733c0-.3281.2061-.9688.2061-1.731,0-3.6621-.419-4.5424-1.8916-4.5424a3.93,3.93,0,0,0-1.1895.2216c-.3418-.1386-.914-.3335-1.501-.5068.0079-.0967.0079-.2021.0079-.3027,0-3.67-.417-4.5406-1.8916-4.5406a3.8909,3.8909,0,0,0-1.1778.2251,13.8871,13.8871,0,0,0-3.9053-.9775c-.7431,0-18.5478.2207-19.0761.2207-1.4873,0-3.1709.7568-5.6045.7568-1.1758,0-4.5488,1.5079-5.0977,2.8077-.62,1.7172-1.6826,3.6772-1.6826,6.5947,0,.7485-1.0683,2.1509-1.0683,3.3486,0,.752.9589,1.1792,1.5869,1.1792a25.26,25.26,0,0,0,4.1894-1.1865,11.4421,11.4421,0,0,0-.1426,1.7866c0,.7573-1.0537,2.1592-1.0537,3.3384,0,.7642.9473,1.1929,1.5948,1.1929a43.4528,43.4528,0,0,0,7.1015-2.27c1.5742,0,2.9483-.65,3.8047-.65a7.2694,7.2694,0,0,0,1.34-.1059,53.0754,53.0754,0,0,0-.94,7.9463c0,.5463-3.3975,39.12-3.3975,39.7675a7.4274,7.4274,0,0,0,.7383,3.1319,19.0947,19.0947,0,0,0-.3135,3.7871c.5479,7.4521,1.0616,8.7627,2.543,8.7627.6426,0,.96,0,1.1738-.8692a3.8528,3.8528,0,0,1,1.0274-.5966c.4687,5.5253,1.0361,6.583,2.374,6.583.625,0,.9522,0,1.16-.86,1.37-1.0791,2.8554-.7578,2.8554-1.832,0-8.9746.4229-11.4658.4229-16.1074.8428-.8672,5.8349-35.2315,6.8965-35.88,0-3.9946.7324-5.5142.7324-7.5645,0-3.7885-2.8477-6.1621-3.9219-7.1338,0-1.1811,3.3867-1.29,5.8281-1.29,1.6993.7593,5.9336.7593,7.6348,1.1919.8428,0,.9434-.5415.9434-1.8418a17.151,17.151,0,0,0-.3067-2.0532"/><path class="cls-2" d="M614.62,13.7524c0-2.8833-.7305-4.1631-1.6787-4.1631-.8418,0-1.7881.6484-2.9307,1.6309.0391-.7842.05-1.6153.05-2.5342,0-2.8745-.7451-4.1514-1.6982-4.1514-1.4776,0-3.2793,2.0318-5.9366,4.3653-2.4267,4.69-4.2275,5.4331-4.2275,6.2876a15.4659,15.4659,0,0,1,.418,2.9848c0,4.26-2.6407,19.61-2.6407,21.315,0,1.5908-17.371,1.9028-18.6279,1.9028a16.2047,16.2047,0,0,0-3.0615.2363c0-1.5058,3.59-22.8735,4.7637-26.498,0-1.9082-1.49-3.5147-3.918-4.2593-.3164,0-.6074.02-.9023.0283.0878-.28.1621-.5478.2431-.8218,0-1.915-1.4912-3.5092-3.92-4.2641-5.3848,0-5.1816,3.0884-6.9815,3.7324a65.0316,65.0316,0,0,0-.958,10.12c-.52.7559-.8388,5.6563-.8388,6.3955,0,3.4048-1.916,49.5479-1.6026,53.7071.1075,1.27.5469,1.9218,2.7608,1.9218a4.17,4.17,0,0,0,1.4209-.2861c.1533.9981.2861,2.041.3955,3.417.0937,1.2832.5293,1.9238,2.7549,1.9238,1.5849,0,3.2851-1.0634,5.7265-3.4033,1.0537-3.208,2.6358-4.1611,4.53-8.541a2.2721,2.2721,0,0,0-1.2637-.6348c-1.1679,0-2.1054,2.23-2.8457,2.23-.9629,0-1.2939-7.2783-1.7343-7.2783-.0313,0-.0977.0215-.1446.0293.0576-.9482.292-8.7217.916-9.0474,2.0108-1.0586,2.4434-3.08,3.5948-3.08,3.4033,0,16.4482-3.6836,17.3671-3.9-.5019,2.2827-4.3457,26.0024-4.3457,28.1411a9.34,9.34,0,0,0-1.0615,3.3c.5352,1.6015.209,2.9717.8584,4.58a4.8556,4.8556,0,0,0,2.74.85c.3271-.2715.6777-.5645,1.05-.85a2.1478,2.1478,0,0,0-.0938.4765c.543,1.6055.2236,2.99.8525,4.59a5.0171,5.0171,0,0,0,2.7647.84,17.94,17.94,0,0,1,2.1055-1.6006c1.7021-3.0683.3291-3.1865,2.4472-8.624,0-2.9785,12.2813-57.9609,12.2813-58.3862,0-.3194,1.3711-2.57,1.3711-12.68"/><path class="cls-2" d="M659.0459,8.6811c.0185-.2759.0283-.5767.0283-.9072,0-3.1333-1.5889-4.001-5.5254-4.32-.3106,0-1.0684.2173-1.8.2173-.4258,0-.94-.4312-1.7881-.4312-1.792,0-15.1436,3.6743-15.874,4.8555-1.6006.6494-11.6543,9.4018-12.4112,12.7558-1.7959,7.5552-7.8408,54.9971-7.8408,56.3018,0,2.2744.416,3.1318,3.2969,3.1318a7.2337,7.2337,0,0,0-.21,2.1651c0,.6474.7754,1.0742,1.6094,1.3144.2861,1.1846,1.041,1.6494,3.1514,1.6494a7.543,7.543,0,0,0-.2,2.1631c0,1.1865,2.5351,1.6162,3.3769,1.6162a8.5675,8.5675,0,0,0,2.6494-.3281,15.0921,15.0921,0,0,0,2.4551.1182c.6309,0,3.3848-.6465,6.8848-.7569a28.471,28.471,0,0,0,7.9287-2.9228,8.2206,8.2206,0,0,0,3.8252-1.6172c1.1592,0,4.8486-1.9453,6.24-3.5576,2.5469-1.3,4.1387-3.3594,4.1387-5.5186,0-.9707-.2187-1.8418-1.4814-2.0517-1.1719.6386-2.2276.332-3.6006,1.9414a23.0885,23.0885,0,0,0-5.1211,1.8047,8.2425,8.2425,0,0,0,1.4853-1.3116c2.5469-1.2978,4.1416-3.3535,4.1416-5.5107,0-.98-.2216-1.833-1.4843-2.0557-1.1719.6524-2.2286.32-3.6,1.9434-2.7451.542-4.3408,1.6221-6.3417,2.2695-1.9229.332-10.7032,2.1631-11.7608,2.3848-1.1631-.1113-2.2422-.2217-3.1816-.2217a13.8247,13.8247,0,0,0-1.6241.11c.1436-1.17,1.4336-10.7627,2.4786-14.0025.3339-5.9414,5.5175-5.3589,11.97-7.1333.7256-.1987,14.4111-.1045,16.0058.22,1.0518-.7632,1.8956-2.4941,1.8956-7.0161-.7315-.769-.8438-2.06-1.6944-2.6006a10.7442,10.7442,0,0,1-2.9472-.5664c.05-.5981.0625-1.2363.0625-1.9746-.7325-.7568-.836-2.0469-1.7032-2.5854-1.9052,0-2.2168-.6543-3.7949-.6543-1.4912,0-6.9863.33-7.8428.33-3.0527,0-4.4384,1.7021-7.6787,2.1533.6885-2.398,4.51-19.5054,8.12-19.5054,3.087,0,13.5586-1.291,16.5235-.2217a2.8924,2.8924,0,0,0,2.4385.8711c2.0185,0,2.6347-.2148,2.6347-2.7016,0-1.7256.7549-1.9527.7549-5.6167,0-2.8687-1.3525-3.8321-4.59-4.2271"/><path class="cls-2" d="M702.4658,6.8955a7.3465,7.3465,0,0,0-1.3711.2021V6.9565c0-3.6514-.6377-4.08-3.1631-5.0156-2.5664,0-9.2324,3.3447-10.8125,3.6509-2.0293.4179-13.7744,8.5556-17.4834,12.9433-1.2773,3.2442-4.87,5.8491-4.87,10.8638,0,5.3144.21,8.4536,4.2412,11.8926.1435,1.5971,13.3994,15.1069,15.1435,16.6416a8.4624,8.4624,0,0,1,2.3379,5.4931c0,2.0782-2.9677,2.2891-2.9677,3.75v1.3516c-.542.83-3.9287,4.6025-5.3125,4.6025-.5313,0-.7344-.1074-.7344-.52,0-.6279,4.0137-1.6738,4.0137-3.4551a1.7791,1.7791,0,0,0-1.3662-1.4482c-1.2764,0-8.3575,4.0654-12.2774,5.5195-3.501,2.51-6.2529,3.3438-6.2529,5.8506,0,2.2949,1.4785,3.1367,4.664,4.2383a2.5864,2.5864,0,0,0-.0976.7148c0,2.6016,1.8984,3.34,6.0449,4.6963,5.09,0,6.2363-2.1982,9.6426-3.3388,3.9092-3.0332,8.6719-3.8643,14.6973-11.585,1.6005-2.0879,5.6162-2.82,5.6162-4.2783,0-2.7168-.0909-2.8125-1.8955-3.1348-.2266-5.32-.961-8.1445-6.2579-13.6723-1.24-1.9751-5.3574-6.0337-5.6728-6.3892-.0108-.0269-5.9775-6.5562-6.4033-8.5342-.418-2.1963-1.5821-3.5547-1.5821-5.1177,0-6.9917,9.419-13.5639,10.5928-13.5639.2051,0,.3193.2.3193.4057,0,1.6685-4.5566,3.0352-4.5566,5.7578,0,1.1416,1.0635,1.4556,2.4287,1.4556,2.7481-1.6758,6.0313-2.8174,10.7022-6.4795,2.7548-2.1836,3.6035-3.23,4.3388-3.4512,1.1573-.31,1.4912-4.059,1.4912-4.8906,0-3.66-.6347-4.0766-3.1972-5.0141m-19.6817,71.188c-.52,0-.7431-.1036-.7431-.5206a.1751.1751,0,0,1,.0371-.0976c.6064-.3565,1.2139-.7256,1.8486-1.1348a6.924,6.924,0,0,0,1.5518-1.0556,30.9587,30.9587,0,0,0,2.5947-2.1553v.376c-.5146.8291-3.9062,4.5879-5.2891,4.5879"/><path class="cls-2" d="M699.4023,82.3579v2.7363h1.7783c.4737-.03,1.9473-.0107,1.9473-1.4209,0-1.3154-1.31-1.3154-1.791-1.3154Zm2.0977-.7246c.788,0,2.5771.2041,2.5771,1.9961a1.8535,1.8535,0,0,1-1.3369,1.7832,1.5638,1.5638,0,0,1,1.1836,1.6709c.0928,1.4062.0928,1.5351.2519,1.84h-.9511A5.5822,5.5822,0,0,1,703.02,87.25c-.06-.8-.1641-1.4512-1.875-1.4512h-1.7422v3.125h-.9639v-7.29Zm-.3194-1.9815a5.5552,5.5552,0,1,0,.0274,0Zm.0449-.7451a6.4113,6.4113,0,1,1-.0175,0Z"/><path class="cls-2" d="M299.6572,109.5434h8.7309a16.15,16.15,0,0,1,3.315.3652,9.5311,9.5311,0,0,1,3.166,1.2579,7.1409,7.1409,0,0,1,2.353,2.4629,7.6362,7.6362,0,0,1,.9195,3.915,7.8623,7.8623,0,0,1-.7466,3.5557,6.9332,6.9332,0,0,1-2.0108,2.456,8.65,8.65,0,0,1-2.9135,1.4365,12.5887,12.5887,0,0,1-3.4434.4668H302.48v14.3819h-2.8223ZM302.48,122.896h6.4179a9.8957,9.8957,0,0,0,2.353-.28,6.0632,6.0632,0,0,0,2.0562-.8975,4.6756,4.6756,0,0,0,1.4561-1.6455,5.2907,5.2907,0,0,0,.5566-2.5283,4.9723,4.9723,0,0,0-.58-2.4863,5.3065,5.3065,0,0,0-1.4976-1.6866,6.15,6.15,0,0,0-2.1206-.9629,10.15,10.15,0,0,0-2.393-.3017H302.48Z"/><path class="cls-2" d="M322.38,129.9565a11.1123,11.1123,0,0,1,.7676-4.1738,9.9938,9.9938,0,0,1,2.1421-3.2969,9.5765,9.5765,0,0,1,3.2969-2.16,11.18,11.18,0,0,1,4.1914-.77,11.0477,11.0477,0,0,1,4.1733.77,9.6684,9.6684,0,0,1,5.4585,5.4571,11.7042,11.7042,0,0,1,0,8.3476,9.8716,9.8716,0,0,1-2.1611,3.2979,9.7587,9.7587,0,0,1-3.2974,2.1533,10.936,10.936,0,0,1-4.1733.7764,11.0666,11.0666,0,0,1-4.1914-.7764,9.4364,9.4364,0,0,1-3.2969-2.1533,9.9982,9.9982,0,0,1-2.1421-3.2979,11.1015,11.1015,0,0,1-.7676-4.1738m2.5674,0a9.1962,9.1962,0,0,0,.5322,3.1475,7.3445,7.3445,0,0,0,4.0479,4.3007,8.5732,8.5732,0,0,0,6.5039,0,7.5335,7.5335,0,0,0,2.4824-1.7363,7.2986,7.2986,0,0,0,1.5581-2.5644,9.4656,9.4656,0,0,0,0-6.292,7.2774,7.2774,0,0,0-1.5581-2.5655,7.5828,7.5828,0,0,0-2.4824-1.7382,8.5856,8.5856,0,0,0-6.5039,0,7.5248,7.5248,0,0,0-2.4854,1.7382,7.3833,7.3833,0,0,0-1.5625,2.5655,9.1749,9.1749,0,0,0-.5322,3.1445"/><polygon class="cls-2" points="346.131 120.073 348.957 120.073 353.748 136.63 353.832 136.63 359.354 120.073 361.794 120.073 367.658 136.63 367.744 136.63 372.41 120.073 374.975 120.073 369.156 139.841 366.503 139.841 360.595 123.664 360.513 123.664 354.992 139.841 352.336 139.841 346.131 120.073"/><path class="cls-2" d="M396.5029,136.1206a8.7581,8.7581,0,0,1-3.7031,3.2529,11.8087,11.8087,0,0,1-4.8575.9775,10.4256,10.4256,0,0,1-4.1064-.7695,9.1709,9.1709,0,0,1-3.168-2.1533,9.5023,9.5023,0,0,1-2.0332-3.2979,12.0666,12.0666,0,0,1-.708-4.2168,11.3072,11.3072,0,0,1,.7285-4.1074,9.6634,9.6634,0,0,1,2.0547-3.2685,9.4257,9.4257,0,0,1,3.126-2.1846,9.7113,9.7113,0,0,1,3.9785-.7979,9.4951,9.4951,0,0,1,4.002.7979,8.6677,8.6677,0,0,1,2.9072,2.0918,8.9306,8.9306,0,0,1,1.7793,2.98,9.9762,9.9762,0,0,1,.5986,3.3769v1.8018H380.4941a8.9721,8.9721,0,0,0,.3193,2.07,7.4446,7.4446,0,0,0,1.18,2.4629,7.5211,7.5211,0,0,0,2.292,2.0547,7.1444,7.1444,0,0,0,3.6983.8545,8.2939,8.2939,0,0,0,3.8095-.9405,6.8857,6.8857,0,0,0,2.8252-2.5713Zm-1.9688-7.83a5.7769,5.7769,0,0,0-.538-2.4844,6.6254,6.6254,0,0,0-1.4522-2.0332,6.9876,6.9876,0,0,0-2.1836-1.3935,7.1246,7.1246,0,0,0-2.6758-.5108,6.5579,6.5579,0,0,0-3.4922.8545,7.7567,7.7567,0,0,0-2.1992,1.9688,7.9767,7.9767,0,0,0-1.1562,2.1611,5.852,5.852,0,0,0-.3428,1.4375Z"/><path class="cls-2" d="M402.8339,125.6333c0-.3672-.0136-.8184-.038-1.3438-.0313-.5322-.0518-1.0625-.0645-1.6094-.0186-.5381-.041-1.0468-.0654-1.5224-.0293-.4678-.043-.8252-.043-1.085H405.19c.0283.7412.0478,1.4512.0654,2.1338a6.1253,6.1253,0,0,0,.1074,1.3281,8.7465,8.7465,0,0,1,2.52-2.8652,6.2936,6.2936,0,0,1,3.7686-1.1143,4.5506,4.5506,0,0,1,.751.0645c.2392.0439.4883.0928.75.1523l-.3018,2.5274a3.1636,3.1636,0,0,0-.9853-.1719,7.2561,7.2561,0,0,0-2.89.5312,5.4534,5.4534,0,0,0-2.0107,1.48,6.18,6.18,0,0,0-1.1748,2.1973,9.2662,9.2662,0,0,0-.3877,2.7226v10.7823h-2.5694Z"/><path class="cls-2" d="M433.7783,136.1206a8.7385,8.7385,0,0,1-3.7022,3.2529,11.8017,11.8017,0,0,1-4.8554.9775,10.4437,10.4437,0,0,1-4.1094-.7695,9.1793,9.1793,0,0,1-3.168-2.1533,9.5149,9.5149,0,0,1-2.0322-3.2979,12.0437,12.0437,0,0,1-.707-4.2168,11.284,11.284,0,0,1,.7285-4.1074,9.6135,9.6135,0,0,1,2.0537-3.2685,9.441,9.441,0,0,1,3.125-2.1846,9.703,9.703,0,0,1,3.9795-.7979,9.4808,9.4808,0,0,1,4.001.7979,8.6557,8.6557,0,0,1,2.9091,2.0918,8.9257,8.9257,0,0,1,1.7774,2.98,9.9787,9.9787,0,0,1,.6006,3.3769v1.8018H417.7714a8.865,8.865,0,0,0,.3194,2.07,7.3637,7.3637,0,0,0,1.1787,2.4629,7.52,7.52,0,0,0,2.292,2.0547,7.1431,7.1431,0,0,0,3.6992.8545,8.2913,8.2913,0,0,0,3.81-.9405,6.8863,6.8863,0,0,0,2.8232-2.5713Zm-1.9668-7.83a5.7769,5.7769,0,0,0-.54-2.4844,6.6314,6.6314,0,0,0-1.4492-2.0332,7.015,7.015,0,0,0-2.1845-1.3935,7.1322,7.1322,0,0,0-2.6758-.5108,6.5467,6.5467,0,0,0-3.4912.8545,7.766,7.766,0,0,0-2.2012,1.9688,7.87,7.87,0,0,0-1.1572,2.1611,5.7716,5.7716,0,0,0-.3409,1.4375Z"/><path class="cls-2" d="M457.3994,136.3794h-.085a6.7446,6.7446,0,0,1-1.4932,1.7724,9.0066,9.0066,0,0,1-1.95,1.2432,10.0868,10.0868,0,0,1-2.2032.7256,11.2589,11.2589,0,0,1-2.2685.2373,11.0993,11.0993,0,0,1-4.1953-.7764,9.4694,9.4694,0,0,1-3.294-2.1533,9.9515,9.9515,0,0,1-2.1416-3.2979,11.69,11.69,0,0,1,0-8.3476,9.9471,9.9471,0,0,1,2.1416-3.2969,9.6107,9.6107,0,0,1,3.294-2.16,11.2129,11.2129,0,0,1,4.1953-.77,11.3316,11.3316,0,0,1,2.2685.2373,10.0892,10.0892,0,0,1,2.2032.7266,9.0022,9.0022,0,0,1,1.95,1.2422,6.7491,6.7491,0,0,1,1.4932,1.7734h.085V107.4887h2.5683v32.3584h-2.5683Zm.26-6.4229a7.8574,7.8574,0,0,0-.6386-3.1445,8.083,8.083,0,0,0-1.7608-2.5655,8.412,8.412,0,0,0-2.6074-1.7382,8.2488,8.2488,0,0,0-3.2529-.64,8.0078,8.0078,0,0,0-3.25.64,7.5539,7.5539,0,0,0-2.4864,1.7382,7.3736,7.3736,0,0,0-1.5615,2.5655,9.5477,9.5477,0,0,0,0,6.292,7.3955,7.3955,0,0,0,1.5615,2.5644,7.5051,7.5051,0,0,0,2.4864,1.7363,8.008,8.008,0,0,0,3.25.6407,8.2493,8.2493,0,0,0,3.2529-.6407,8.3547,8.3547,0,0,0,2.6074-1.7363,8.1106,8.1106,0,0,0,1.7608-2.5644,7.8753,7.8753,0,0,0,.6386-3.1475"/><path class="cls-2" d="M476.8359,107.4887h2.5674v16.0459h.081a6.84,6.84,0,0,1,1.4971-1.7734,9.0182,9.0182,0,0,1,1.9522-1.2422,10.0348,10.0348,0,0,1,2.2011-.7266,11.3415,11.3415,0,0,1,2.27-.2373,11.0231,11.0231,0,0,1,4.17.77,9.8879,9.8879,0,0,1,3.2939,2.16,9.74,9.74,0,0,1,2.166,3.2969,11.6758,11.6758,0,0,1,0,8.3476,9.6627,9.6627,0,0,1-5.46,5.4512,10.9117,10.9117,0,0,1-4.17.7764,11.2688,11.2688,0,0,1-2.27-.2373,10.0325,10.0325,0,0,1-2.2011-.7256,9.0225,9.0225,0,0,1-1.9522-1.2432,6.8358,6.8358,0,0,1-1.4971-1.7724h-.081v3.4677h-2.5674Zm2.3086,22.4678a7.7924,7.7924,0,0,0,.6387,3.1475,8.0913,8.0913,0,0,0,1.76,2.5644,8.2567,8.2567,0,0,0,5.8614,2.377,8.0133,8.0133,0,0,0,3.249-.6407,7.4822,7.4822,0,0,0,2.4834-1.7363,7.3092,7.3092,0,0,0,1.5615-2.5644,9.4989,9.4989,0,0,0,0-6.292,7.2879,7.2879,0,0,0-1.5615-2.5655,7.5308,7.5308,0,0,0-2.4834-1.7382,8.0131,8.0131,0,0,0-3.249-.64,8.2443,8.2443,0,0,0-3.254.64,8.3793,8.3793,0,0,0-2.6074,1.7382,8.0638,8.0638,0,0,0-1.76,2.5655,7.7748,7.7748,0,0,0-.6387,3.1445"/><path class="cls-2" d="M509.1005,145.9614a7.4326,7.4326,0,0,1-2.0107,3.0449,5.0594,5.0594,0,0,1-3.4228,1.1055,7.9463,7.9463,0,0,1-1.2862-.1065,10.89,10.89,0,0,1-1.2383-.2734l.2559-2.3984c.3682.1142.75.2226,1.1338.3232a4.6431,4.6431,0,0,0,1.1787.1494,2.5428,2.5428,0,0,0,1.22-.3008,3.2222,3.2222,0,0,0,.92-.7763,5.0241,5.0241,0,0,0,.6612-1.0489c.1826-.38.3476-.7754.4931-1.1767l1.7979-4.5762-8.0449-19.8545H503.62l6.5508,16.65,6.3789-16.65h2.7382Z"/><path class="cls-2" d="M560.2031,137.8725a19.5864,19.5864,0,0,1-5.501,2.1192,26.98,26.98,0,0,1-5.8.6171,16.6977,16.6977,0,0,1-6.3525-1.1777,14.23,14.23,0,0,1-4.9463-3.29,15.1327,15.1327,0,0,1-3.211-5.05,17.3507,17.3507,0,0,1-1.1533-6.3994,17.1281,17.1281,0,0,1,1.1533-6.3721,15.2018,15.2018,0,0,1,3.211-5.0342,14.5853,14.5853,0,0,1,4.9463-3.3115,16.4457,16.4457,0,0,1,6.3525-1.2,14.6428,14.6428,0,0,1,10.9121,4.1963l-2.0517,2.14a8.6232,8.6232,0,0,0-1.6924-1.5244,11.94,11.94,0,0,0-2.18-1.1992,14.72,14.72,0,0,0-2.46-.7676,11.8649,11.8649,0,0,0-2.5283-.2793,13.3618,13.3618,0,0,0-5.33,1.0264,11.9206,11.9206,0,0,0-4.04,2.8222,12.5892,12.5892,0,0,0-2.5713,4.2461,15.87,15.87,0,0,0,0,10.5225,12.63,12.63,0,0,0,2.5713,4.2383,11.9067,11.9067,0,0,0,4.04,2.8222,13.2269,13.2269,0,0,0,5.33,1.0284,25.6265,25.6265,0,0,0,4.5791-.3877,11.69,11.69,0,0,0,3.8926-1.4082V126.0649h-7.2715v-2.5742h10.1006Z"/><path class="cls-2" d="M567.7763,125.6333c0-.3672-.0136-.8184-.041-1.3438-.0273-.5322-.0527-1.0625-.0674-1.6094-.0136-.5381-.0342-1.0468-.0605-1.5224-.0283-.4678-.043-.8252-.043-1.085h2.5645c.0322.7412.0488,1.4512.0693,2.1338a6.2136,6.2136,0,0,0,.1035,1.3281,8.7686,8.7686,0,0,1,2.5244-2.8652,6.2855,6.2855,0,0,1,3.7647-1.1143,4.4793,4.4793,0,0,1,.751.0645c.2431.0439.49.0928.749.1523l-.3008,2.5274a3.1206,3.1206,0,0,0-.9805-.1719,7.2435,7.2435,0,0,0-2.8906.5312,5.4562,5.4562,0,0,0-2.0137,1.48,6.2482,6.2482,0,0,0-1.1777,2.1973,9.3978,9.3978,0,0,0-.3838,2.7226v10.7823h-2.5674Z"/><path class="cls-2" d="M597.3925,131.5385c0,.97.0078,1.8448.02,2.6133.0157.7695.0362,1.4883.0645,2.1416s.0645,1.27.1045,1.8379c.0439.5684.1123,1.1416.1933,1.71h-2.3935a18.3122,18.3122,0,0,1-.2588-3.211h-.0869a7.2155,7.2155,0,0,1-2.7588,2.8291,8.6585,8.6585,0,0,1-4.1728.8985,9.9729,9.9729,0,0,1-2.5225-.3223,6.5844,6.5844,0,0,1-2.23-1.0283,5.2812,5.2812,0,0,1-2.2236-4.5176,5.2942,5.2942,0,0,1,1.1572-3.5918,7.1843,7.1843,0,0,1,2.8476-1.9893,13.7024,13.7024,0,0,1,3.5918-.8564q1.9014-.1918,3.3584-.1934h2.9991V126.66a4.18,4.18,0,0,0-1.5869-3.6777,6.7767,6.7767,0,0,0-3.9805-1.1133,8.9962,8.9962,0,0,0-6.0293,2.2275l-1.502-1.7607a9.19,9.19,0,0,1,3.5078-2.0752,12.6824,12.6824,0,0,1,4.0235-.7051,8.9944,8.9944,0,0,1,5.7363,1.6953q2.1387,1.6935,2.1406,5.4532Zm-5.1357-1.625a22.4189,22.4189,0,0,0-3.1475.2159,10.6025,10.6025,0,0,0-2.7363.7314,5.01,5.01,0,0,0-1.95,1.3652,3.19,3.19,0,0,0-.7266,2.1348,3.1344,3.1344,0,0,0,.4073,1.6094,3.5265,3.5265,0,0,0,1.0488,1.1552,4.8912,4.8912,0,0,0,1.4336.6827,5.59,5.59,0,0,0,1.6035.2373,8.3353,8.3353,0,0,0,3.3848-.5967,5.8106,5.8106,0,0,0,2.1191-1.5654,5.5457,5.5457,0,0,0,1.0918-2.1846,10.3628,10.3628,0,0,0,.2979-2.457v-1.3282Z"/><path class="cls-2" d="M603.6845,120.0669h2.5684v3.4677h.083a6.7514,6.7514,0,0,1,1.498-1.7734,8.7772,8.7772,0,0,1,1.95-1.2422,10.0659,10.0659,0,0,1,2.2-.7266,11.3393,11.3393,0,0,1,2.2686-.2373,11.012,11.012,0,0,1,4.17.77,9.8469,9.8469,0,0,1,3.2979,2.16,9.69,9.69,0,0,1,2.163,3.2969,11.6758,11.6758,0,0,1,0,8.3476,9.6372,9.6372,0,0,1-5.4609,5.4512,10.9008,10.9008,0,0,1-4.17.7764,11.2666,11.2666,0,0,1-2.2686-.2373,10.0636,10.0636,0,0,1-2.2-.7256,8.7813,8.7813,0,0,1-1.95-1.2432,6.7469,6.7469,0,0,1-1.498-1.7724h-.083V149.603h-2.5684Zm2.3086,9.89a7.8909,7.8909,0,0,0,.6387,3.1475,8.11,8.11,0,0,0,1.7607,2.5644A8.3784,8.3784,0,0,0,611,137.4047a8.2739,8.2739,0,0,0,3.2529.6407,8.0357,8.0357,0,0,0,3.2529-.6407,7.4914,7.4914,0,0,0,2.4834-1.7363,7.3544,7.3544,0,0,0,1.5625-2.5644,9.5646,9.5646,0,0,0,0-6.292,7.3328,7.3328,0,0,0-1.5625-2.5655,7.54,7.54,0,0,0-2.4834-1.7382,8.0354,8.0354,0,0,0-3.2529-.64,8.2733,8.2733,0,0,0-3.2529.64,8.436,8.436,0,0,0-2.6075,1.7382,8.0827,8.0827,0,0,0-1.7607,2.5655,7.8729,7.8729,0,0,0-.6387,3.1445"/><path class="cls-2" d="M630.3867,107.4887h2.5683v16.0459h.0879a6.8909,6.8909,0,0,1,2.5674-2.8008,7.4861,7.4861,0,0,1,4.1943-1.1787,8.4937,8.4937,0,0,1,3.7647.7256,6.0975,6.0975,0,0,1,2.29,1.9053,7.2162,7.2162,0,0,1,1.1573,2.7217,15.63,15.63,0,0,1,.3193,3.167v11.7666h-2.5674V128.2045a12.3306,12.3306,0,0,0-.2129-2.3339,6.173,6.173,0,0,0-.751-2.0332,3.85,3.85,0,0,0-1.497-1.43,5.02,5.02,0,0,0-2.503-.5391,7.3988,7.3988,0,0,0-2.6757.4883,5.85,5.85,0,0,0-2.1836,1.501,7.3671,7.3671,0,0,0-1.4541,2.5224,10.8047,10.8047,0,0,0-.5362,3.5762v9.8848h-2.5683Z"/><path class="cls-2" d="M653.9687,112.2368a1.9357,1.9357,0,0,1,3.2979-1.3653,1.9367,1.9367,0,1,1-3.2979,1.3653m.6406,7.8359h2.5674v19.7686h-2.5674Z"/><path class="cls-2" d="M663.9,107.4887h2.5655v16.0459h.0849a6.8423,6.8423,0,0,1,1.4971-1.7734,9.03,9.03,0,0,1,1.95-1.2422,10.0375,10.0375,0,0,1,2.2031-.7266,11.3393,11.3393,0,0,1,2.2686-.2373,11.0246,11.0246,0,0,1,4.1709.77,9.8688,9.8688,0,0,1,3.2939,2.16,9.7071,9.7071,0,0,1,2.1641,3.2969,11.6491,11.6491,0,0,1,0,8.3476,9.6521,9.6521,0,0,1-5.458,5.4512,10.9132,10.9132,0,0,1-4.1709.7764,11.2666,11.2666,0,0,1-2.2686-.2373,10.0352,10.0352,0,0,1-2.2031-.7256,9.0338,9.0338,0,0,1-1.95-1.2432,6.8377,6.8377,0,0,1-1.4971-1.7724h-.0849v3.4677H663.9Zm2.3106,22.4678a7.7924,7.7924,0,0,0,.6387,3.1475,8.1446,8.1446,0,0,0,1.7558,2.5644,8.3791,8.3791,0,0,0,2.6074,1.7363,8.2729,8.2729,0,0,0,3.2569.6407,8.0182,8.0182,0,0,0,3.25-.6407,7.4882,7.4882,0,0,0,2.4824-1.7363,7.2969,7.2969,0,0,0,1.5625-2.5644,9.4989,9.4989,0,0,0,0-6.292,7.2756,7.2756,0,0,0-1.5625-2.5655,7.5369,7.5369,0,0,0-2.4824-1.7382,8.018,8.018,0,0,0-3.25-.64,8.2724,8.2724,0,0,0-3.2569.64,8.4367,8.4367,0,0,0-2.6074,1.7382,8.1167,8.1167,0,0,0-1.7558,2.5655,7.7748,7.7748,0,0,0-.6387,3.1445"/><path class="cls-2" d="M708.0625,136.1206a8.7043,8.7043,0,0,1-3.7041,3.2529,11.76,11.76,0,0,1-4.8506.9775,10.4283,10.4283,0,0,1-4.1084-.7695,9.1655,9.1655,0,0,1-3.169-2.1533,9.4278,9.4278,0,0,1-2.0322-3.2979,12.0666,12.0666,0,0,1-.708-4.2168,11.2845,11.2845,0,0,1,.7305-4.1074,9.6642,9.6642,0,0,1,2.05-3.2685,9.4468,9.4468,0,0,1,3.1289-2.1846,9.6934,9.6934,0,0,1,3.9775-.7979,9.5116,9.5116,0,0,1,4.0029.7979,8.7073,8.7073,0,0,1,2.9073,2.0918,8.8892,8.8892,0,0,1,1.7754,2.98,9.8818,9.8818,0,0,1,.5986,3.3769v1.8018H692.0576a8.9721,8.9721,0,0,0,.3193,2.07,7.3656,7.3656,0,0,0,1.1787,2.4629,7.48,7.48,0,0,0,2.293,2.0547,7.1442,7.1442,0,0,0,3.6982.8545,8.3059,8.3059,0,0,0,3.81-.9405,6.8857,6.8857,0,0,0,2.8252-2.5713Zm-1.9649-7.83a5.8479,5.8479,0,0,0-.5381-2.4844,6.5919,6.5919,0,0,0-1.4521-2.0332,6.9514,6.9514,0,0,0-2.1875-1.3935,7.1008,7.1008,0,0,0-2.6719-.5108,6.5409,6.5409,0,0,0-3.49.8545,7.718,7.718,0,0,0-2.2022,1.9688A7.89,7.89,0,0,0,692.4,126.853a5.8071,5.8071,0,0,0-.3427,1.4375Z"/></svg>